HIERARCHY
ROOT Hips
{
  OFFSET -5.04345 99.448 -0.47129
  CHANNELS 6 Xposition Yposition Zposition Zrotation Xrotation Yrotation
  JOINT Spine
  {
    OFFSET 0 10.1816 0.1315
    CHANNELS 6 Xposition Yposition Zposition Zrotation Xrotation Yrotation
    JOINT Spine1
    {
      OFFSET 0 10.0835 -1.0008
      CHANNELS 6 Xposition Yposition Zposition Zrotation Xrotation Yrotation
      JOINT Spine2
      {
        OFFSET 0 9.1 -1.3734
        CHANNELS 6 Xposition Yposition Zposition Zrotation Xrotation Yrotation
        JOINT Neck
        {
          OFFSET 0 16.6717 -2.5162
          CHANNELS 6 Xposition Yposition Zposition Zrotation Xrotation Yrotation
          JOINT Head
          {
            OFFSET 0 9.6179 1.685
            CHANNELS 6 Xposition Yposition Zposition Zrotation Xrotation Yrotation
            JOINT HeadTop_End
            {
              OFFSET 0 17.8152 2.585
              CHANNELS 6 Xposition Yposition Zposition Zrotation Xrotation Yrotation
              End Site
              {
                OFFSET 0 0 0
              }
            }
            JOINT LeftEye
            {
              OFFSET 3.0676 6.4095 9.2836
              CHANNELS 6 Xposition Yposition Zposition Zrotation Xrotation Yrotation
              End Site
              {
                OFFSET 0 0 0
              }
            }
            JOINT RightEye
            {
              OFFSET -3.0676 6.4095 9.2835
              CHANNELS 6 Xposition Yposition Zposition Zrotation Xrotation Yrotation
              End Site
              {
                OFFSET 0 0 0
              }
            }
          }
        }
        JOINT LeftShoulder
        {
          OFFSET 4.5704 10.946 -2.628
          CHANNELS 6 Xposition Yposition Zposition Zrotation Xrotation Yrotation
          JOINT LeftArm
          {
            OFFSET 10.5924 -0.5246 -2.2321
            CHANNELS 6 Xposition Yposition Zposition Zrotation Xrotation Yrotation
            JOINT LeftForeArm
            {
              OFFSET 27.8415 -0.0001 0
              CHANNELS 6 Xposition Yposition Zposition Zrotation Xrotation Yrotation
              JOINT LeftHand
              {
                OFFSET 28.3288 0 0
                CHANNELS 6 Xposition Yposition Zposition Zrotation Xrotation Yrotation
                JOINT LeftHandThumb1
                {
                  OFFSET 2.4661 -1.575 2.6824
                  CHANNELS 6 Xposition Yposition Zposition Zrotation Xrotation Yrotation
                  JOINT LeftHandThumb2
                  {
                    OFFSET 3.2298 -1.8647 1.8647
                    CHANNELS 6 Xposition Yposition Zposition Zrotation Xrotation Yrotation
                    JOINT LeftHandThumb3
                    {
                      OFFSET 2.6526 -1.5315 1.5315
                      CHANNELS 6 Xposition Yposition Zposition Zrotation Xrotation Yrotation
                      End Site
                      {
                        OFFSET 1.9546 -1.1285 1.1285
                      }
                    }
                  }
                }
                JOINT LeftHandIndex1
                {
                  OFFSET 9.1093 -0.5171 2.2601
                  CHANNELS 6 Xposition Yposition Zposition Zrotation Xrotation Yrotation
                  JOINT LeftHandIndex2
                  {
                    OFFSET 3.6764 0 0
                    CHANNELS 6 Xposition Yposition Zposition Zrotation Xrotation Yrotation
                    JOINT LeftHandIndex3
                    {
                      OFFSET 2.8831 0 0
                      CHANNELS 6 Xposition Yposition Zposition Zrotation Xrotation Yrotation
                      End Site
                      {
                        OFFSET 2.3927 0 0
                      }
                    }
                  }
                }
                JOINT LeftHandMiddle1
                {
                  OFFSET 9.5334 0 0
                  CHANNELS 6 Xposition Yposition Zposition Zrotation Xrotation Yrotation
                  JOINT LeftHandMiddle2
                  {
                    OFFSET 3.6982 0 0
                    CHANNELS 6 Xposition Yposition Zposition Zrotation Xrotation Yrotation
                    JOINT LeftHandMiddle3
                    {
                      OFFSET 2.9509 0 0
                      CHANNELS 6 Xposition Yposition Zposition Zrotation Xrotation Yrotation
                      End Site
                      {
                        OFFSET 2.8339 0 0
                      }
                    }
                  }
                }
                JOINT LeftHandRing1
                {
                  OFFSET 9.1045 -0.0439 -1.8651
                  CHANNELS 6 Xposition Yposition Zposition Zrotation Xrotation Yrotation
                  JOINT LeftHandRing2
                  {
                    OFFSET 3.154 0 0
                    CHANNELS 6 Xposition Yposition Zposition Zrotation Xrotation Yrotation
                    JOINT LeftHandRing3
                    {
                      OFFSET 2.9377 0 0
                      CHANNELS 6 Xposition Yposition Zposition Zrotation Xrotation Yrotation
                      End Site
                      {
                        OFFSET 2.6475 0 0
                      }
                    }
                  }
                }
                JOINT LeftHandPinky1
                {
                  OFFSET 8.0778 -0.4887 -3.8061
                  CHANNELS 6 Xposition Yposition Zposition Zrotation Xrotation Yrotation
                  JOINT LeftHandPinky2
                  {
                    OFFSET 3.6 0 0
                    CHANNELS 6 Xposition Yposition Zposition Zrotation Xrotation Yrotation
                    JOINT LeftHandPinky3
                    {
                      OFFSET 2.1142 0 0
                      CHANNELS 6 Xposition Yposition Zposition Zrotation Xrotation Yrotation
                      End Site
                      {
                        OFFSET 1.9757 0 0
                      }
                    }
                  }
                }
              }
            }
          }
        }
        JOINT RightShoulder
        {
          OFFSET -4.57 10.9462 -2.628
          CHANNELS 6 Xposition Yposition Zposition Zrotation Xrotation Yrotation
          JOINT RightArm
          {
            OFFSET -10.5928 -0.5248 -2.2321
            CHANNELS 6 Xposition Yposition Zposition Zrotation Xrotation Yrotation
            JOINT RightForeArm
            {
              OFFSET -27.8415 0 0
              CHANNELS 6 Xposition Yposition Zposition Zrotation Xrotation Yrotation
              JOINT RightHand
              {
                OFFSET -28.3288 0 0.0001
                CHANNELS 6 Xposition Yposition Zposition Zrotation Xrotation Yrotation
                JOINT RightHandPinky1
                {
                  OFFSET -8.0767 -0.4885 -3.806
                  CHANNELS 6 Xposition Yposition Zposition Zrotation Xrotation Yrotation
                  JOINT RightHandPinky2
                  {
                    OFFSET -3.6 0 0.0001
                    CHANNELS 6 Xposition Yposition Zposition Zrotation Xrotation Yrotation
                    JOINT RightHandPinky3
                    {
                      OFFSET -2.1142 0 0
                      CHANNELS 6 Xposition Yposition Zposition Zrotation Xrotation Yrotation
                      End Site
                      {
                        OFFSET -1.9757 0 0
                      }
                    }
                  }
                }
                JOINT RightHandRing1
                {
                  OFFSET -9.1036 -0.0439 -1.8651
                  CHANNELS 6 Xposition Yposition Zposition Zrotation Xrotation Yrotation
                  JOINT RightHandRing2
                  {
                    OFFSET -3.154 0 0
                    CHANNELS 6 Xposition Yposition Zposition Zrotation Xrotation Yrotation
                    JOINT RightHandRing3
                    {
                      OFFSET -2.9377 0 0
                      CHANNELS 6 Xposition Yposition Zposition Zrotation Xrotation Yrotation
                      End Site
                      {
                        OFFSET -2.6475 0 0
                      }
                    }
                  }
                }
                JOINT RightHandMiddle1
                {
                  OFFSET -9.5325 0 0
                  CHANNELS 6 Xposition Yposition Zposition Zrotation Xrotation Yrotation
                  JOINT RightHandMiddle2
                  {
                    OFFSET -3.6982 0 0
                    CHANNELS 6 Xposition Yposition Zposition Zrotation Xrotation Yrotation
                    JOINT RightHandMiddle3
                    {
                      OFFSET -2.9509 0 0
                      CHANNELS 6 Xposition Yposition Zposition Zrotation Xrotation Yrotation
                      End Site
                      {
                        OFFSET -2.8339 0 0.0001
                      }
                    }
                  }
                }
                JOINT RightHandIndex1
                {
                  OFFSET -9.1083 -0.5168 2.2601
                  CHANNELS 6 Xposition Yposition Zposition Zrotation Xrotation Yrotation
                  JOINT RightHandIndex2
                  {
                    OFFSET -3.6764 0 0
                    CHANNELS 6 Xposition Yposition Zposition Zrotation Xrotation Yrotation
                    JOINT RightHandIndex3
                    {
                      OFFSET -2.8831 0 0
                      CHANNELS 6 Xposition Yposition Zposition Zrotation Xrotation Yrotation
                      End Site
                      {
                        OFFSET -2.3927 0 0
                      }
                    }
                  }
                }
                JOINT RightHandThumb1
                {
                  OFFSET -2.4648 -1.5727 2.6826
                  CHANNELS 6 Xposition Yposition Zposition Zrotation Xrotation Yrotation
                  JOINT RightHandThumb2
                  {
                    OFFSET -3.2298 -1.8647 1.8647
                    CHANNELS 6 Xposition Yposition Zposition Zrotation Xrotation Yrotation
                    JOINT RightHandThumb3
                    {
                      OFFSET -2.6526 -1.5314 1.5314
                      CHANNELS 6 Xposition Yposition Zposition Zrotation Xrotation Yrotation
                      End Site
                      {
                        OFFSET -1.9546 -1.1285 1.1285
                      }
                    }
                  }
                }
              }
            }
          }
        }
      }
    }
  }
  JOINT LeftUpLeg
  {
    OFFSET 8.2078 -6.7517 -1.5996
    CHANNELS 6 Xposition Yposition Zposition Zrotation Xrotation Yrotation
    JOINT LeftLeg
    {
      OFFSET 0 -44.3705 0.2846
      CHANNELS 6 Xposition Yposition Zposition Zrotation Xrotation Yrotation
      JOINT LeftFoot
      {
        OFFSET 0 -44.4279 -2.9822
        CHANNELS 6 Xposition Yposition Zposition Zrotation Xrotation Yrotation
        JOINT LeftToeBase
        {
          OFFSET 0 -8.7287 10.7106
          CHANNELS 6 Xposition Yposition Zposition Zrotation Xrotation Yrotation
          End Site
          {
            OFFSET 0 -0.0007 9.2781
          }
        }
      }
    }
  }
  JOINT RightUpLeg
  {
    OFFSET -8.2078 -6.7517 -1.5996
    CHANNELS 6 Xposition Yposition Zposition Zrotation Xrotation Yrotation
    JOINT RightLeg
    {
      OFFSET 0 -44.3705 0.2862
      CHANNELS 6 Xposition Yposition Zposition Zrotation Xrotation Yrotation
      JOINT RightFoot
      {
        OFFSET 0 -44.4277 -2.9838
        CHANNELS 6 Xposition Yposition Zposition Zrotation Xrotation Yrotation
        JOINT RightToeBase
        {
          OFFSET 0 -8.7287 10.7106
          CHANNELS 6 Xposition Yposition Zposition Zrotation Xrotation Yrotation
          End Site
          {
            OFFSET 0 -0.0007 9.2781
          }
        }
      }
    }
  }
}
MOTION
Frames:	4
Frame Time:	0.0333333
-5.09539 100.18 0.557672 12.1646 15.9339 -38.3233 -1.33227e-015 10.1816 0.1315 1.89413 -0.904594 1.68639 -8.88178e-016 10.0835 -1.0008 1.99964 -1.8509 2.51286 -1.77636e-015 9.1 -1.3734 1.97485 -1.90876 2.4792 -1.77636e-015 16.6717 -2.5162 0.350098 -3.89148 0.0891952 -1.77636e-015 9.6179 1.685 -14.4328 -0.32227 3.01471 3.55271e-015 17.8152 2.585 -7.95139e-016 -1.59028e-015 6.36111e-015 3.0676 6.4095 9.2836 -7.95139e-016 -1.59028e-015 6.36111e-015 -3.0676 6.4095 9.2835 -7.95139e-016 -1.59028e-015 6.36111e-015 4.5704 10.946 -2.628 -5.03161 -1.1757 7.84077 10.5924 -0.5246 -2.2321 -85.4628 53.6782 13.1978 27.8415 -0.0001 0 -0.000207404 -4.165e-006 -7.79034 28.3288 -1.33227e-015 0 19.0402 -41.5371 -1.14926 2.4661 -1.575 2.6824 6.13847 -1.1463 3.82721 3.2298 -1.8647 1.8647 0.739154 4.04322 7.89738 2.6526 -1.5315 1.5315 2.53742 -0.50848 1.5998 9.1093 -0.5171 2.2601 7.52524e-006 -1.20839e-006 9.82536e-006 3.6764 -7.10543e-015 0 2.69778e-006 2.36815e-006 -8.24093e-009 2.8831 0 0 1.28733e-006 -2.20414e-006 -1.10207e-006 9.5334 0 3.55271e-015 0.0159904 -2.78147e-006 -0.00191491 3.6982 7.10543e-015 0 -0.0159802 3.40724e-006 0.00192473 2.9509 -7.10543e-015 0 -4.77083e-015 1.27222e-014 -1.59028e-015 9.1045 -0.0439 -1.8651 7.52524e-006 -1.20839e-006 9.82536e-006 3.154 -7.10543e-015 0 2.69778e-006 2.36815e-006 -8.24093e-009 2.9377 -7.10543e-015 0 1.28733e-006 -2.20414e-006 -1.10207e-006 8.0778 -0.4887 -3.8061 0.507956 0.0179792 4.05449 3.6 0 -7.10543e-015 -0.50796 0.0179834 -4.05449 2.1142 7.10543e-015 0 1.18448e-005 -7.05501e-006 9.98936e-006 -4.57 10.9462 -2.628 4.0265 -1.12639 -10.9749 -10.5928 -0.5248 -2.2321 11.4166 -18.1713 81.8186 -27.8415 -2.84217e-014 0 -2.50979e-006 -3.63087e-006 12.7188 -28.3288 0 0.0001 -37.2404 -14.5374 -1.71999 -8.0767 -0.4885 -3.806 -1.34561e-006 -4.40186e-006 -0.00159476 -3.6 1.42109e-014 0.0001 4.92042e-005 -4.45595e-006 0.00158159 -2.1142 7.10543e-015 7.10543e-015 2.64834e-031 3.18055e-015 -4.77083e-015 -9.1036 -0.0439 -1.8651 -2.45654e-006 -1.76908e-006 -4.03982e-006 -3.154 1.42109e-014 -7.10543e-015 5.62963e-006 -3.22122e-006 1.39631e-006 -2.9377 0 0 3.18055e-015 0 9.54166e-015 -9.5325 1.42109e-014 -7.10543e-015 -2.45654e-006 -1.76908e-006 -4.03982e-006 -3.6982 0 0 3.98564e-006 -1.05928e-006 3.51773e-006 -2.9509 -7.10543e-015 0 -1.96825e-006 -6.07946e-006 -0.00201587 -9.1083 -0.5168 2.2601 -2.45654e-006 -1.76908e-006 -4.03982e-006 -3.6764 0 0 6.36111e-015 3.18055e-015 -6.36111e-015 -2.8831 -1.42109e-014 0 3.18055e-015 3.18055e-015 -0 -2.4648 -1.5727 2.6826 -6.58322 -1.43646 -3.7637 -3.2298 -1.8647 1.8647 -0.219585 4.67209 -8.61486 -2.6526 -1.5314 1.5314 -2.09689 -1.27757 0.0886366 8.2078 -6.7517 -1.5996 4.99276 -14.1387 14.0648 -1.77636e-015 -44.3705 0.2846 4.85678 9.87535 9.79101 3.55271e-015 -44.4279 -2.9822 -13.3575 -12.1727 14.9774 3.55271e-015 -8.7287 10.7106 -1.64371e-006 -2.52322 5.43241e-006 -8.2078 -6.7517 -1.5996 -3.57142 -38.2061 -5.75722 3.55271e-015 -44.3705 0.2862 -2.84198 25.0655 -1.48539 0 -44.4277 -2.9838 4.49888 -6.42731 0.0504441 0 -8.7287 10.7106 2.37391e-007 5.41736e-007 7.85004e-006 
-4.15099 99.9294 0.539318 12.6303 17.0128 -38.5779 0 10.1816 0.1315 2.43587 -0.907562 1.609 -8.88178e-016 10.0835 -1.0008 2.81809 -1.93918 2.27492 0 9.1 -1.3734 2.80047 -1.99495 2.23854 0 16.6717 -2.5162 -0.277137 -5.48181 0.305014 0 9.6179 1.685 -15.6538 -3.3164 2.70548 0 17.8152 2.585 7.95139e-016 0 -0 3.0676 6.4095 9.2836 7.95139e-016 0 -0 -3.0676 6.4095 9.2835 7.95139e-016 0 -0 4.5704 10.946 -2.628 -4.88267 -1.12705 7.70615 10.5924 -0.5246 -2.2321 -85.2958 54.838 11.4135 27.8415 -0.0001 1.42109e-014 -0.000226548 4.66889e-006 -8.87593 28.3288 -1.11022e-015 0 21.5812 -41.6195 -0.598701 2.4661 -1.575 2.6824 6.13847 -1.1463 3.82721 3.2298 -1.8647 1.8647 0.739154 4.04322 7.89738 2.6526 -1.5315 1.5315 2.53742 -0.50848 1.5998 9.1093 -0.5171 2.2601 7.52524e-006 -1.20839e-006 9.82536e-006 3.6764 0 0 2.69778e-006 2.36815e-006 -8.24094e-009 2.8831 -7.10543e-015 0 1.28733e-006 -2.20414e-006 -1.10207e-006 9.5334 0 3.55271e-015 0.0159904 -2.78147e-006 -0.00191491 3.6982 7.10543e-015 0 -0.0159802 3.40724e-006 0.00192473 2.9509 1.42109e-014 0 -4.77083e-015 9.54166e-015 -1.59028e-015 9.1045 -0.0439 -1.8651 7.52524e-006 -1.20839e-006 9.82536e-006 3.154 0 3.55271e-015 2.69778e-006 2.36815e-006 -8.24094e-009 2.9377 7.10543e-015 0 1.28733e-006 -2.20414e-006 -1.10207e-006 8.0778 -0.4887 -3.8061 0.507956 0.0179792 4.05449 3.6 2.13163e-014 0 -0.50796 0.0179834 -4.05449 2.1142 0 -3.55271e-015 1.18448e-005 -7.05501e-006 9.98936e-006 -4.57 10.9462 -2.628 3.53375 -0.978392 -10.2057 -10.5928 -0.5248 -2.2321 20.3288 -18.6145 82.0089 -27.8415 0 7.10543e-015 -2.82058e-006 2.52443e-006 17.5165 -28.3288 0 0.0001 -43.6475 -14.3169 -2.7518 -8.0767 -0.4885 -3.806 -1.04045e-006 2.30116e-006 -0.00159667 -3.6 3.55271e-015 0.0001 4.92042e-005 -4.45595e-006 0.00158159 -2.1142 1.06581e-014 0 -4.77083e-015 0 -1.03368e-014 -9.1036 -0.0439 -1.8651 -1.52344e-006 1.173e-007 -6.32113e-007 -3.154 3.55271e-015 0 5.62963e-006 -3.22122e-006 1.39631e-006 -2.9377 -7.10543e-015 7.10543e-015 -4.77083e-015 -6.36111e-015 -1.59028e-015 -9.5325 -3.55271e-015 -7.10543e-015 -1.52344e-006 1.173e-007 -6.32113e-007 -3.6982 -7.10543e-015 -7.10543e-015 3.98564e-006 -1.05928e-006 3.51773e-006 -2.9509 -1.06581e-014 -7.10543e-015 -1.96825e-006 -6.07946e-006 -0.00201587 -9.1083 -0.5168 2.2601 -1.52344e-006 1.173e-007 -6.32113e-007 -3.6764 -7.10543e-015 -1.42109e-014 -1.59028e-015 -3.18055e-015 -7.95139e-016 -2.8831 -1.42109e-014 0 3.18055e-015 -3.18055e-015 7.95139e-016 -2.4648 -1.5727 2.6826 -6.58323 -1.43648 -3.76368 -3.2298 -1.8647 1.8647 -0.219585 4.67209 -8.61486 -2.6526 -1.5314 1.5314 -2.09689 -1.27757 0.0886366 8.2078 -6.7517 -1.5996 5.60661 -17.7007 13.8139 -1.77636e-015 -44.3705 0.2846 4.41655 14.0824 9.26188 3.55271e-015 -44.4279 -2.9822 -12.7858 -14.1918 16.0707 0 -8.7287 10.7106 3.47447e-006 -1.22805 -6.39343e-007 -8.2078 -6.7517 -1.5996 -3.53317 -39.8649 -5.3624 1.77636e-015 -44.3705 0.2862 -3.17263 25.2014 -1.8628 0 -44.4277 -2.9838 5.19143 -5.95237 0.0758178 1.77636e-015 -8.7287 10.7106 2.21352e-006 -4.18098e-005 2.46598e-006 
-3.53341 99.7767 0.55693 13.9555 17.9428 -38.0911 -6.66134e-016 10.1816 0.1315 2.45768 -1.09116 1.42873 4.44089e-016 10.0835 -1.0008 2.64759 -2.34307 1.80255 0 9.1 -1.3734 2.63399 -2.38677 1.75394 1.77636e-015 16.6717 -2.5162 -0.763294 -7.3276 0.48506 -3.55271e-015 9.6179 1.685 -15.7874 -6.82114 2.18301 0 17.8152 2.585 -7.95139e-016 0 3.18055e-015 3.0676 6.4095 9.2836 -7.95139e-016 0 3.18055e-015 -3.0676 6.4095 9.2835 -7.95139e-016 0 3.18055e-015 4.5704 10.946 -2.628 -4.52248 -1.01192 7.3902 10.5924 -0.5246 -2.2321 -84.9551 55.7934 10.9553 27.8415 -0.0001 0 -0.000203329 -2.22124e-005 -9.76868 28.3288 0 -7.10543e-015 21.9735 -41.347 -1.65017 2.4661 -1.575 2.6824 6.13847 -1.1463 3.82721 3.2298 -1.8647 1.8647 0.739154 4.04322 7.89738 2.6526 -1.5315 1.5315 2.53742 -0.50848 1.5998 9.1093 -0.5171 2.2601 7.52524e-006 -1.20839e-006 9.82536e-006 3.6764 -7.10543e-015 0 2.69778e-006 2.36815e-006 -8.24094e-009 2.8831 0 3.55271e-015 1.28733e-006 -2.20414e-006 -1.10207e-006 9.5334 7.10543e-015 0 0.0159904 -2.78147e-006 -0.00191491 3.6982 -7.10543e-015 0 -0.0159802 3.40724e-006 0.00192473 2.9509 0 0 7.94503e-031 -9.54166e-015 4.77083e-015 9.1045 -0.0439 -1.8651 7.52524e-006 -1.20839e-006 9.82536e-006 3.154 0 0 2.69778e-006 2.36815e-006 -8.24094e-009 2.9377 7.10543e-015 0 1.28733e-006 -2.20414e-006 -1.10207e-006 8.0778 -0.4887 -3.8061 0.507956 0.0179792 4.05449 3.6 0 0 -0.50796 0.0179834 -4.05449 2.1142 7.10543e-015 -7.10543e-015 1.18448e-005 -7.05501e-006 9.98936e-006 -4.57 10.9462 -2.628 3.07843 -0.837159 -9.46041 -10.5928 -0.5248 -2.2321 27.9034 -20.4737 81.6696 -27.8415 1.42109e-014 1.42109e-014 4.84687e-006 -8.07839e-006 24.5351 -28.3288 -2.84217e-014 0.0001 -50.8151 -16.4274 -4.89795 -8.0767 -0.4885 -3.806 9.82008e-008 -3.046e-006 -0.00158814 -3.6 0 0.0001 4.92042e-005 -4.45595e-006 0.00158159 -2.1142 -3.55271e-015 -7.10543e-015 -7.95139e-016 -1.59028e-015 -1.19271e-015 -9.1036 -0.0439 -1.8651 7.95139e-016 1.59028e-015 -1.19271e-015 -3.154 -7.10543e-015 -1.42109e-014 5.62963e-006 -3.22122e-006 1.39631e-006 -2.9377 0 0 3.18055e-015 0 1.98785e-016 -9.5325 -3.55271e-015 -1.42109e-014 7.95139e-016 1.59028e-015 -1.19271e-015 -3.6982 -3.55271e-015 0 3.98564e-006 -1.05928e-006 3.51773e-006 -2.9509 3.55271e-015 7.10543e-015 -1.96825e-006 -6.07946e-006 -0.00201587 -9.1083 -0.5168 2.2601 7.95139e-016 1.59028e-015 -1.19271e-015 -3.6764 0 0 -3.31043e-032 -1.59028e-015 -1.19271e-015 -2.8831 7.10543e-015 1.42109e-014 1.59028e-015 -3.18055e-015 -1.0138e-014 -2.4648 -1.5727 2.6826 -6.58322 -1.43647 -3.76368 -3.2298 -1.8647 1.8647 -0.219585 4.67209 -8.61486 -2.6526 -1.5314 1.5314 -2.09689 -1.27757 0.0886366 8.2078 -6.7517 -1.5996 5.17937 -20.0396 13.3799 -1.77636e-015 -44.3705 0.2846 3.62082 15.058 9.40315 -7.10543e-015 -44.4279 -2.9822 -12.1082 -14.47 15.5713 0 -8.7287 10.7106 -1.79861e-006 -0.95429 2.92627e-006 -8.2078 -6.7517 -1.5996 -5.28432 -41.7933 -7.41113 0 -44.3705 0.2862 -3.41662 25.6011 -1.7321 0 -44.4277 -2.9838 5.53978 -5.79654 0.13009 -1.77636e-015 -8.7287 10.7106 4.00442e-006 -3.53783e-005 9.65845e-006 
-3.23913 99.6925 0.698803 15.4462 18.3196 -37.5562 8.32667e-016 10.1816 0.1315 2.15015 -1.379 1.32215 1.77636e-015 10.0835 -1.0008 1.8087 -2.91296 1.45895 0 9.1 -1.3734 1.79508 -2.94677 1.39375 0 16.6717 -2.5162 -1.26119 -8.89941 0.48785 1.77636e-015 9.6179 1.685 -15.1258 -9.68572 1.06496 -3.55271e-015 17.8152 2.585 1.19271e-015 -5.96354e-016 3.18055e-015 3.0676 6.4095 9.2836 1.19271e-015 -5.96354e-016 3.18055e-015 -3.0676 6.4095 9.2835 1.19271e-015 -5.96354e-016 3.18055e-015 4.5704 10.946 -2.628 -4.37203 -0.966682 7.26693 10.5924 -0.5246 -2.2321 -83.832 55.5637 11.4365 27.8415 -0.0001 -1.42109e-014 -0.000200393 -1.59619e-005 -10.1402 28.3288 4.44089e-016 -7.10543e-015 20.094 -40.2106 -3.75333 2.4661 -1.575 2.6824 6.13847 -1.1463 3.82721 3.2298 -1.8647 1.8647 0.739154 4.04322 7.89738 2.6526 -1.5315 1.5315 2.53742 -0.50848 1.5998 9.1093 -0.5171 2.2601 7.52524e-006 -1.20839e-006 9.82536e-006 3.6764 7.10543e-015 0 2.69778e-006 2.36815e-006 -8.24094e-009 2.8831 0 0 1.28733e-006 -2.20414e-006 -1.10207e-006 9.5334 7.10543e-015 3.55271e-015 0.0159904 -2.78147e-006 -0.00191491 3.6982 0 -3.55271e-015 -0.0159802 3.40724e-006 0.00192473 2.9509 7.10543e-015 3.55271e-015 -8.82781e-032 -3.18055e-015 -1.59028e-015 9.1045 -0.0439 -1.8651 7.52524e-006 -1.20839e-006 9.82536e-006 3.154 0 0 2.69778e-006 2.36815e-006 -8.24094e-009 2.9377 0 0 1.28733e-006 -2.20414e-006 -1.10207e-006 8.0778 -0.4887 -3.8061 0.507956 0.0179792 4.05449 3.6 7.10543e-015 0 -0.50796 0.0179834 -4.05449 2.1142 7.10543e-015 7.10543e-015 1.18448e-005 -7.05501e-006 9.98936e-006 -4.57 10.9462 -2.628 2.67991 -0.737404 -8.91412 -10.5928 -0.5248 -2.2321 32.7341 -23.5468 81.8323 -27.8415 0 0 -2.35564e-006 -4.07237e-006 30.951 -28.3288 -1.42109e-014 0.0001 -51.5003 -22.1402 -4.00584 -8.0767 -0.4885 -3.806 -6.29472e-007 1.23714e-006 -0.00159194 -3.6 -3.55271e-015 0.0001 4.92042e-005 -4.45595e-006 0.00158159 -2.1142 -3.55271e-015 0 1.98785e-015 1.88845e-015 -5.55665e-015 -9.1036 -0.0439 -1.8651 3.97569e-016 -6.4605e-016 -5.45415e-015 -3.154 0 7.10543e-015 5.62963e-006 -3.22122e-006 1.39631e-006 -2.9377 0 -7.10543e-015 1.19271e-015 -1.98785e-016 4.01297e-015 -9.5325 0 -1.42109e-014 3.97569e-016 -6.4605e-016 -5.45415e-015 -3.6982 0 0 3.98564e-006 -1.05928e-006 3.51773e-006 -2.9509 3.55271e-015 7.10543e-015 -1.96825e-006 -6.07946e-006 -0.00201587 -9.1083 -0.5168 2.2601 3.97569e-016 -6.4605e-016 -5.45415e-015 -3.6764 0 0 7.95139e-016 4.47266e-016 -2.27671e-015 -2.8831 0 0 7.95139e-016 4.47266e-016 -2.25186e-015 -2.4648 -1.5727 2.6826 -6.58322 -1.43647 -3.7637 -3.2298 -1.8647 1.8647 -0.219585 4.67209 -8.61486 -2.6526 -1.5314 1.5314 -2.09689 -1.27757 0.0886366 8.2078 -6.7517 -1.5996 4.07498 -20.9925 12.8484 1.77636e-015 -44.3705 0.2846 2.85386 14.3511 9.6681 0 -44.4279 -2.9822 -11.4825 -14.0671 14.8386 0 -8.7287 10.7106 6.1916e-007 -1.25742 -3.11978e-007 -8.2078 -6.7517 -1.5996 -7.59145 -43.2505 -9.36537 1.77636e-015 -44.3705 0.2862 -3.54338 26.2782 -1.86782 0 -44.4277 -2.9838 5.8275 -5.98275 0.215446 -1.77636e-015 -8.7287 10.7106 -3.12998e-006 -4.12063e-005 1.20899e-005 
